<svg xmlns="http://www.w3.org/2000/svg" xmlns:xlink="http://www.w3.org/1999/xlink" width="500" zoomAndPan="magnify" viewBox="0 0 375 374.999991" height="500" preserveAspectRatio="xMidYMid meet" version="1.0"><defs><g/><clipPath id="e8a6db7c33"><path d="M 183.542969 162.691406 L 319.292969 162.691406 L 319.292969 211.441406 L 183.542969 211.441406 Z M 183.542969 162.691406 " clip-rule="nonzero"/></clipPath><clipPath id="50957e5a33"><path d="M 207.738281 162.691406 L 295.382812 162.691406 C 301.800781 162.691406 307.953125 165.242188 312.488281 169.777344 C 317.027344 174.316406 319.574219 180.46875 319.574219 186.886719 C 319.574219 193.300781 317.027344 199.453125 312.488281 203.992188 C 307.953125 208.527344 301.800781 211.078125 295.382812 211.078125 L 207.738281 211.078125 C 201.320312 211.078125 195.167969 208.527344 190.628906 203.992188 C 186.09375 199.453125 183.542969 193.300781 183.542969 186.886719 C 183.542969 180.46875 186.09375 174.316406 190.628906 169.777344 C 195.167969 165.242188 201.320312 162.691406 207.738281 162.691406 Z M 207.738281 162.691406 " clip-rule="nonzero"/></clipPath></defs><g clip-path="url(#e8a6db7c33)"><g clip-path="url(#50957e5a33)"><path stroke-linecap="butt" transform="matrix(0.75, 0, 0, 0.75, 183.544416, 162.693241)" fill="none" stroke-linejoin="miter" d="M 32.258492 -0.00244676 L 149.117882 -0.00244676 C 157.675175 -0.00244676 165.878301 3.398595 171.925176 9.445471 C 177.977261 15.497555 181.373094 23.700681 181.373094 32.257974 C 181.373094 40.810059 177.977261 49.013185 171.925176 55.065269 C 165.878301 61.112145 157.675175 64.513187 149.117882 64.513187 L 32.258492 64.513187 C 23.701199 64.513187 15.498073 61.112145 9.445989 55.065269 C 3.399113 49.013185 -0.0019292 40.810059 -0.0019292 32.257974 C -0.0019292 23.700681 3.399113 15.497555 9.445989 9.445471 C 15.498073 3.398595 23.701199 -0.00244676 32.258492 -0.00244676 Z M 32.258492 -0.00244676 " stroke="#000000" stroke-width="22" stroke-opacity="1" stroke-miterlimit="4"/></g></g><g fill="#000000" fill-opacity="1"><g transform="translate(56.833936, 209.775001)"><g><path d="M 12.40625 -8.390625 L 34.34375 -8.390625 L 34.34375 0 L 3.625 0 L 3.625 -46.21875 L 33.9375 -46.21875 L 33.9375 -37.765625 L 12.40625 -37.765625 L 12.40625 -27.265625 L 31.890625 -27.265625 L 31.890625 -18.890625 L 12.40625 -18.890625 Z M 12.40625 -8.390625 "/></g></g></g><g fill="#000000" fill-opacity="1"><g transform="translate(93.813582, 209.775001)"><g><path d="M 24.359375 -8.3125 C 26.921875 -8.3125 29.144531 -8.835938 31.03125 -9.890625 C 32.925781 -10.953125 34.445312 -12.410156 35.59375 -14.265625 L 43.515625 -10.296875 C 41.617188 -7.046875 39.019531 -4.425781 35.71875 -2.4375 C 32.414062 -0.457031 28.628906 0.53125 24.359375 0.53125 C 21.054688 0.53125 18.03125 -0.0625 15.28125 -1.25 C 12.53125 -2.4375 10.164062 -4.109375 8.1875 -6.265625 C 6.207031 -8.429688 4.675781 -10.941406 3.59375 -13.796875 C 2.519531 -16.660156 1.984375 -19.742188 1.984375 -23.046875 C 1.984375 -26.347656 2.519531 -29.425781 3.59375 -32.28125 C 4.675781 -35.144531 6.207031 -37.65625 8.1875 -39.8125 C 10.164062 -41.96875 12.53125 -43.640625 15.28125 -44.828125 C 18.03125 -46.023438 21.054688 -46.625 24.359375 -46.625 C 28.628906 -46.625 32.414062 -45.640625 35.71875 -43.671875 C 39.019531 -41.710938 41.617188 -39.082031 43.515625 -35.78125 L 35.59375 -31.828125 C 34.445312 -33.671875 32.925781 -35.128906 31.03125 -36.203125 C 29.144531 -37.285156 26.921875 -37.828125 24.359375 -37.828125 C 21.585938 -37.828125 19.203125 -37.175781 17.203125 -35.875 C 15.203125 -34.582031 13.660156 -32.820312 12.578125 -30.59375 C 11.503906 -28.375 10.96875 -25.859375 10.96875 -23.046875 C 10.96875 -20.273438 11.503906 -17.773438 12.578125 -15.546875 C 13.660156 -13.328125 15.203125 -11.566406 17.203125 -10.265625 C 19.203125 -8.960938 21.585938 -8.3125 24.359375 -8.3125 Z M 24.359375 -8.3125 "/></g></g></g><g fill="#000000" fill-opacity="1"><g transform="translate(138.651405, 209.775001)"><g><path d="M 31.03125 -46.21875 L 39.8125 -46.21875 L 39.8125 0 L 31.03125 0 L 31.03125 -18.890625 L 12.40625 -18.890625 L 12.40625 0 L 3.625 0 L 3.625 -46.21875 L 12.40625 -46.21875 L 12.40625 -27.265625 L 31.03125 -27.265625 Z M 31.03125 -46.21875 "/></g></g></g></svg>